<svg xmlns:xlink="http://www.w3.org/1999/xlink" xmlns="http://www.w3.org/2000/svg" viewBox="0 0 1000 1000" width="1000" height="1000" preserveAspectRatio="xMidYMid meet" style="width: 100%; height: 100%; transform: translate3d(0px, 0px, 0px);"><defs><clipPath id="__lottie_element_496"><rect width="1000" height="1000" x="0" y="0"></rect></clipPath><clipPath id="__lottie_element_498"><path d="M0,0 L1000,0 L1000,1000 L0,1000z"></path></clipPath><clipPath id="__lottie_element_506"><path d="M0,0 L1000,0 L1000,1000 L0,1000z"></path></clipPath><clipPath id="__lottie_element_511"><path d="M0,0 L1000,0 L1000,1000 L0,1000z"></path></clipPath><clipPath id="__lottie_element_520"><path d="M0,0 L1000,0 L1000,1000 L0,1000z"></path></clipPath><clipPath id="__lottie_element_526"><path d="M0,0 L1000,0 L1000,1000 L0,1000z"></path></clipPath><clipPath id="__lottie_element_536"><path d="M0,0 L1000,0 L1000,1000 L0,1000z"></path></clipPath><clipPath id="__lottie_element_546"><path d="M0,0 L1000,0 L1000,1000 L0,1000z"></path></clipPath><clipPath id="__lottie_element_561"><path d="M0,0 L1000,0 L1000,1000 L0,1000z"></path></clipPath><clipPath id="__lottie_element_570"><path d="M0,0 L1000,0 L1000,1000 L0,1000z"></path></clipPath><clipPath id="__lottie_element_576"><path d="M0,0 L1000,0 L1000,1000 L0,1000z"></path></clipPath><clipPath id="__lottie_element_586"><path d="M0,0 L1000,0 L1000,1000 L0,1000z"></path></clipPath><clipPath id="__lottie_element_596"><path d="M0,0 L1000,0 L1000,1000 L0,1000z"></path></clipPath><clipPath id="__lottie_element_605"><path d="M0,0 L1000,0 L1000,1000 L0,1000z"></path></clipPath><clipPath id="__lottie_element_614"><path d="M0,0 L1000,0 L1000,1000 L0,1000z"></path></clipPath><clipPath id="__lottie_element_622"><path d="M0,0 L1000,0 L1000,1000 L0,1000z"></path></clipPath><clipPath id="__lottie_element_630"><path d="M0,0 L1000,0 L1000,1000 L0,1000z"></path></clipPath><clipPath id="__lottie_element_638"><path d="M0,0 L1000,0 L1000,1000 L0,1000z"></path></clipPath><clipPath id="__lottie_element_646"><path d="M0,0 L1000,0 L1000,1000 L0,1000z"></path></clipPath></defs><g clip-path="url(#__lottie_element_496)"><g transform="matrix(1,0,0,1,0,0)" opacity="1" style="display: block;"><g opacity="1" transform="matrix(1,0,0,1,0,0)"><path fill="#FFFFFF" fill-opacity="0" d=" M1000,0 C1000,0 1000,1000 1000,1000 C1000,1000 0,1000 0,1000 C0,1000 0,0 0,0 C0,0 1000,0 1000,0z"></path></g></g><g clip-path="url(#__lottie_element_646)" transform="matrix(1,0,0,1,0,0)" opacity="1" style="display: block;"><g transform="matrix(0.9482682347297668,-0.31747016310691833,0.31747016310691833,0.9482682347297668,251.05999755859375,609.010009765625)" opacity="1" style="display: block;"><g opacity="1" transform="matrix(1,0,0,1,0,0)"><path fill="#FFF5E6" fill-opacity="1" d=" M0.1991671472787857,82.61160278320312 C-6.200930118560791,47.41219711303711 143.30929565429688,39.999324798583984 208.8103485107422,0 C208.8103485107422,0 201.3102264404297,72.99876403808594 201.3102264404297,72.99876403808594 C158.8085479736328,91.99844360351562 6.5992751121521,117.81100463867188 0.1991671472787857,82.61160278320312 C0.1991671472787857,82.61160278320312 0.1991671472787857,82.61160278320312 0.1991671472787857,82.61160278320312z"></path></g></g></g><g clip-path="url(#__lottie_element_638)" transform="matrix(1,0,0,1,0,0)" opacity="1" style="display: block;"><g transform="matrix(0.997904360294342,0.0647064745426178,-0.0647064745426178,0.997904360294342,566.8499755859375,554.7100219726562)" opacity="1" style="display: block;"><g opacity="1" transform="matrix(1,0,0,1,0,0)"><path fill="#FFF5E6" fill-opacity="1" d=" M184.3175506591797,132.48931884765625 C191.210693359375,109.41461181640625 49.00094223022461,44.999427795410156 0,0 C0,0 0,70.99909973144531 0,70.99909973144531 C12.000231742858887,87.99888610839844 172.8173370361328,170.98883056640625 184.3175506591797,132.48931884765625 C184.3175506591797,132.48931884765625 184.3175506591797,132.48931884765625 184.3175506591797,132.48931884765625z"></path></g></g></g><g clip-path="url(#__lottie_element_630)" transform="matrix(1,0,0,1,0,0)" opacity="1" style="display: block;"><g transform="matrix(1,0,0,1,394.2900085449219,794)" opacity="1" style="display: block;"><g opacity="1" transform="matrix(1,0,0,1,0,0)"><path fill="#FFF5E6" fill-opacity="1" d=" M44.00227737426758,163.9975128173828 C17.600910186767578,162.3975372314453 3.6668596267700195,53.99917984008789 0,0 C39.502044677734375,8.999862670898438 112.80583190917969,27.6995792388916 90.00465393066406,30.499536514282227 C61.50318145751953,33.999481201171875 77.00398254394531,165.9974822998047 44.00227737426758,163.9975128173828 C44.00227737426758,163.9975128173828 44.00227737426758,163.9975128173828 44.00227737426758,163.9975128173828z"></path></g></g></g><g clip-path="url(#__lottie_element_622)" transform="matrix(1,0,0,1,0,0)" opacity="1" style="display: block;"><g transform="matrix(1,0,0,1,551.7899780273438,828)" opacity="1" style="display: block;"><g opacity="1" transform="matrix(1,0,0,1,0,0)"><path fill="#FFF5E6" fill-opacity="1" d=" M38.26259994506836,132.8296356201172 C11,132.8296356201172 20,57.50114059448242 0,14.00027847290039 C0,14.00027847290039 73,0 73,0 C72.49700164794922,47.58444595336914 69.60569763183594,132.8296356201172 38.26259994506836,132.8296356201172 C38.26259994506836,132.8296356201172 38.26259994506836,132.8296356201172 38.26259994506836,132.8296356201172z"></path></g></g></g><g clip-path="url(#__lottie_element_614)" transform="matrix(1,0,0,1,0,0)" opacity="1" style="display: block;"><g transform="matrix(1,0,0,1,358.6300048828125,561.5)" opacity="1" style="display: block;"><g opacity="1" transform="matrix(1,0,0,1,0,0)"><path fill="#FF9E7F" fill-opacity="1" d=" M11.165627479553223,246.49661254882812 C-19.33390235900879,200.7472381591797 19.99909019470215,71.66571044921875 41.66535568237305,0 C41.66535568237305,0 243.66221618652344,0 243.66221618652344,0 C289.6614990234375,62.665836334228516 325.16094970703125,197.59727478027344 287.16156005859375,261.99639892578125 C249.16213989257812,326.3955078125 41.66515350341797,292.2459716796875 11.165627479553223,246.49661254882812 C11.165627479553223,246.49661254882812 11.165627479553223,246.49661254882812 11.165627479553223,246.49661254882812z"></path></g></g></g><g clip-path="url(#__lottie_element_498)" transform="matrix(1,0,0,1,0,0)" opacity="1" style="display: block;"><g clip-path="url(#__lottie_element_506)" transform="matrix(1,0,0,1,0,0)" opacity="1" style="display: block;"><g clip-path="url(#__lottie_element_605)" transform="matrix(1,0,0,1,0,0)" opacity="1" style="display: block;"><g transform="matrix(1,0,0,1,305.79998779296875,100)" opacity="1" style="display: block;"><g opacity="1" transform="matrix(1,0,0,1,0,0)"><path fill="#FFF5E6" fill-opacity="1" d=" M61,0.5523656606674194 C23,-11.447454452514648 0,176.0497589111328 0,176.0497589111328 C0,176.0497589111328 126.5,90.5511474609375 126.5,90.5511474609375 C126.5,90.5511474609375 86.85679626464844,8.717578887939453 61,0.5523656606674194 C61,0.5523656606674194 61,0.5523656606674194 61,0.5523656606674194z"></path></g></g></g><g clip-path="url(#__lottie_element_596)" transform="matrix(1,0,0,1,0,0)" opacity="1" style="display: block;"><g transform="matrix(1,0,0,1,260.739990234375,102.94000244140625)" opacity="1" style="display: block;"><g opacity="1" transform="matrix(1,0,0,1,0,0)"><path fill="#FFF5E6" fill-opacity="1" d=" M215.05352783203125,494.1185302734375 C97.55462646484375,478.6184387207031 40.255123138427734,430.6180725097656 13.0551118850708,374.61767578125 C-15.69499397277832,315.4252624511719 5.055113792419434,216.11654663085938 55.5549201965332,148.11605834960938 C106.05426788330078,80.11527252197266 183.55374145507812,74.115234375 183.55374145507812,74.115234375 C183.55374145507812,74.115234375 175.07080078125,62.005943298339844 181.0537567138672,56.11539840698242 C188.5347137451172,48.750946044921875 206.5535888671875,62.61534881591797 206.5535888671875,62.61534881591797 C206.5535888671875,62.61534881591797 201.45762634277344,47.53194046020508 206.5535888671875,40.61519241333008 C220.55348205566406,21.61515235900879 250.55328369140625,69.61539459228516 250.55328369140625,69.61539459228516 C250.55328369140625,69.61539459228516 279.5530700683594,68.61518859863281 307.0528869628906,74.115234375 C334.5527038574219,79.61527252197266 355.05255126953125,88.6153335571289 355.05255126953125,88.6153335571289 C355.05255126953125,88.6153335571289 419.0521240234375,-3.6947977542877197 451.0519104003906,0.11475034803152084 C474.0517578125,2.85286021232605 480.7066955566406,32.614933013916016 489.0516357421875,113.61581420898438 C497.55157470703125,196.1164093017578 504.0515441894531,296.61712646484375 482.05169677734375,368.1176452636719 C452.9978942871094,462.5443115234375 358.8905334472656,513.0926513671875 215.05352783203125,494.1185302734375 C215.05352783203125,494.1185302734375 215.05352783203125,494.1185302734375 215.05352783203125,494.1185302734375z"></path></g></g></g><g clip-path="url(#__lottie_element_561)" transform="matrix(1,0,0,1,0,0)" opacity="1" style="display: block;"><g clip-path="url(#__lottie_element_570)" transform="matrix(1,0,0,1,0,0)" opacity="1" style="display: block;"><g clip-path="url(#__lottie_element_586)" transform="matrix(1,0,0,1,0,0)" opacity="1" style="display: block;"><g transform="matrix(1,0,0,1,347.29998779296875,369.54998779296875)" opacity="1" style="display: block;"><g opacity="1" transform="matrix(1,0,0,1,0,0)"><path fill="#9D695E" fill-opacity="1" d=" M17,34 C26.350000381469727,34 34,26.350000381469727 34,17 C34,7.650000095367432 26.350000381469727,0 17,0 C7.650000095367432,0 0,7.650000095367432 0,17 C0,26.350000381469727 7.650000095367432,34 17,34z"></path></g></g></g><g clip-path="url(#__lottie_element_576)" transform="matrix(1,0,0,1,0,0)" opacity="1" style="display: block;"><g transform="matrix(1,0,0,1,553.8599853515625,389)" opacity="1" style="display: block;"><g opacity="1" transform="matrix(1,0,0,1,0,0)"><path fill="#9D695E" fill-opacity="1" d=" M18.5,37 C28.674999237060547,37 37,28.674999237060547 37,18.5 C37,8.324999809265137 28.674999237060547,0 18.5,0 C8.324999809265137,0 0,8.324999809265137 0,18.5 C0,28.674999237060547 8.324999809265137,37 18.5,37z"></path></g></g></g></g><g transform="matrix(1,0,0,1,347.29998779296875,369.54998779296875)" opacity="1" style="display: block;"><g opacity="1" transform="matrix(1,0,0,1,0,0)"><path fill="rgb(0,0,0)" fill-opacity="0" d=" M243.55999755859375,0 C243.55999755859375,0 243.55999755859375,56.45000076293945 243.55999755859375,56.45000076293945 C243.55999755859375,56.45000076293945 0,56.45000076293945 0,56.45000076293945 C0,56.45000076293945 0,0 0,0 C0,0 243.55999755859375,0 243.55999755859375,0z"></path></g></g></g><g clip-path="url(#__lottie_element_546)" transform="matrix(1,0,0,1,0,0)" opacity="1" style="display: block;"><g transform="matrix(1,0,0,1,424.29998779296875,419.54998779296875)" opacity="1" style="display: block;"><g opacity="1" transform="matrix(1,0,0,1,0,0)"><path fill="rgb(0,0,0)" fill-opacity="0" d=" M0,16.941200256347656 C15.058815002441406,20.705900192260742 27.258811950683594,12.800000190734863 32.52941131591797,0 C36.29410934448242,8.941200256347656 40.47060775756836,24 64,24"></path></g></g><g transform="matrix(1,0,0,1,424.29998779296875,419.54998779296875)" opacity="1" style="display: block;"><g opacity="1" transform="matrix(1,0,0,1,0,0)"><path stroke-linecap="round" stroke-linejoin="round" fill-opacity="0" stroke="#9D695E" stroke-opacity="1" stroke-width="18px" d=" M0,16.941200256347656 C15.058815002441406,20.705900192260742 27.258811950683594,12.800000190734863 32.52941131591797,0 C36.29410934448242,8.941200256347656 40.47060775756836,24 64,24"></path></g></g><g transform="matrix(1,0,0,1,0,0)" opacity="1" style="display: block;"><g opacity="1" transform="matrix(1,0,0,1,0,0)"><path fill="rgb(0,0,0)" fill-opacity="0" d=" M1000,0 C1000,0 1000,1000 1000,1000 C1000,1000 0,1000 0,1000 C0,1000 0,0 0,0 C0,0 1000,0 1000,0z"></path></g></g></g><g clip-path="url(#__lottie_element_511)" transform="matrix(1,0,0,1,0,0)" opacity="1" style="display: block;"><g clip-path="url(#__lottie_element_520)" transform="matrix(1,0,0,1,0,0)" opacity="1" style="display: block;"><g clip-path="url(#__lottie_element_536)" transform="matrix(1,0,0,1,0,0)" opacity="1" style="display: block;"><g transform="matrix(1,0,0,1,287.29998779296875,417.54998779296875)" opacity="1" style="display: block;"><g opacity="1" transform="matrix(1,0,0,1,0,0)"><path fill="#FFB3AB" fill-opacity="1" d=" M35,70 C54.25,70 70,54.25 70,35 C70,15.75 54.25,0 35,0 C15.75,0 0,15.75 0,35 C0,54.25 15.75,70 35,70z"></path></g></g></g><g clip-path="url(#__lottie_element_526)" transform="matrix(1,0,0,1,0,0)" opacity="1" style="display: block;"><g transform="matrix(1,0,0,1,598.2999877929688,441.54998779296875)" opacity="1" style="display: block;"><g opacity="1" transform="matrix(1,0,0,1,0,0)"><path fill="#FFB3AB" fill-opacity="1" d=" M39,78 C60.45000076293945,78 78,60.45000076293945 78,39 C78,17.549999237060547 60.45000076293945,0 39,0 C17.549999237060547,0 0,17.549999237060547 0,39 C0,60.45000076293945 17.549999237060547,78 39,78z"></path></g></g></g></g><g transform="matrix(1,0,0,1,287.29998779296875,417.54998779296875)" opacity="1" style="display: block;"><g opacity="1" transform="matrix(1,0,0,1,0,0)"><path fill="rgb(0,0,0)" fill-opacity="0" d=" M389,0 C389,0 389,102 389,102 C389,102 0,102 0,102 C0,102 0,0 0,0 C0,0 389,0 389,0z"></path></g></g></g></g><g transform="matrix(1,0,0,1,260.739990234375,100)" opacity="1" style="display: block;"><g opacity="1" transform="matrix(1,0,0,1,0,0)"><path fill="rgb(0,0,0)" fill-opacity="0" d=" M496.989990234375,0 C496.989990234375,0 496.989990234375,501 496.989990234375,501 C496.989990234375,501 0,501 0,501 C0,501 0,0 0,0 C0,0 496.989990234375,0 496.989990234375,0z"></path></g></g></g></g></svg>